<svg width="434" height="234" viewBox="0 0 434 234" fill="none" xmlns="http://www.w3.org/2000/svg">
<g opacity="0.2">
<g opacity="0.2">
<path opacity="0.2" d="M213.783 142.722C212.333 142.722 210.883 142.335 209.578 141.609L155.348 110.262C152.738 108.762 151.143 105.956 151.143 102.957V40.3116C151.143 37.3124 152.738 34.5066 155.348 33.007L209.53 1.66C212.14 0.160372 215.378 0.160372 217.988 1.66L272.218 33.007C274.828 34.5066 276.423 37.3124 276.423 40.3116V102.957C276.423 105.956 274.78 108.762 272.218 110.262L217.988 141.609C216.683 142.383 215.233 142.722 213.783 142.722ZM213.783 4.75599C213.058 4.75599 212.333 4.9495 211.657 5.3365L157.427 36.6835C156.122 37.4575 155.3 38.8604 155.3 40.36V103.006C155.3 104.505 156.122 105.908 157.427 106.682L211.657 138.029C212.962 138.803 214.557 138.803 215.862 138.029L270.092 106.634C271.397 105.86 272.218 104.457 272.218 102.957V40.3116C272.218 38.812 271.397 37.4091 270.092 36.6351L215.862 5.28812C215.233 4.9495 214.508 4.75599 213.783 4.75599Z" fill="#1E1E1E"/>
</g>
<g opacity="0.2">
<path opacity="0.2" d="M213.783 140.496C213.687 140.496 213.59 140.496 213.542 140.496C212.43 140.351 211.608 139.384 211.705 138.271C211.753 136.481 211.705 95.5075 211.705 72.9164L154.043 39.586C153.028 39.0055 152.69 37.6994 153.27 36.6835C153.85 35.6676 155.155 35.329 156.17 35.9095L215.91 70.4492V71.6586C215.958 115.583 215.958 138.126 215.91 138.658C215.717 139.722 214.847 140.496 213.783 140.496Z" fill="#1E1E1E"/>
</g>
<g opacity="0.2">
<path opacity="0.2" d="M213.783 73.7388C213.058 73.7388 212.333 73.3518 211.947 72.6745C211.367 71.6586 211.705 70.3525 212.72 69.772L271.397 35.8611C272.412 35.2806 273.717 35.6193 274.297 36.6351C274.877 37.651 274.538 38.9571 273.523 39.5376L214.847 73.4485C214.508 73.642 214.122 73.7388 213.783 73.7388Z" fill="#1E1E1E"/>
</g>
<g opacity="0.2">
<g opacity="0.2">
<path opacity="0.2" d="M157.282 103.054C157.137 102.812 156.895 102.619 156.653 102.57C156.363 102.474 156.073 102.522 155.832 102.667L153.077 104.263C152.593 104.554 152.4 105.183 152.69 105.715L153.753 107.553C153.898 107.795 154.14 107.988 154.382 108.037C154.672 108.085 154.962 108.085 155.203 107.94L157.958 106.343C158.442 106.053 158.635 105.424 158.345 104.892L157.282 103.054Z" fill="#1E1E1E"/>
</g>
<g opacity="0.2">
<path opacity="0.2" d="M203.005 76.6413C202.86 76.3994 202.618 76.2059 202.377 76.1575C202.087 76.0608 201.797 76.1092 201.555 76.2543L198.8 77.8507C198.317 78.1409 198.123 78.7698 198.413 79.3019L199.477 81.1401C199.622 81.382 199.863 81.5755 200.105 81.6239C200.395 81.6723 200.685 81.6723 200.927 81.5272L203.682 79.9308C204.165 79.6405 204.358 79.0117 204.068 78.4795L203.005 76.6413Z" fill="#1E1E1E"/>
</g>
<g opacity="0.2">
<path opacity="0.2" d="M166.417 97.7812C166.272 97.5393 166.03 97.3458 165.788 97.2974C165.498 97.2007 165.208 97.249 164.967 97.3941L162.212 98.9905C161.728 99.2808 161.535 99.9097 161.825 100.442L162.888 102.28C163.033 102.522 163.275 102.715 163.517 102.764C163.807 102.812 164.097 102.812 164.338 102.667L167.093 101.071C167.577 100.78 167.77 100.152 167.48 99.6194L166.417 97.7812Z" fill="#1E1E1E"/>
</g>
<g opacity="0.2">
<path opacity="0.2" d="M193.87 81.9142C193.725 81.6723 193.483 81.4788 193.242 81.4304C192.952 81.3337 192.662 81.3821 192.42 81.5272L189.665 83.1235C189.182 83.4138 188.988 84.0427 189.278 84.5748L190.342 86.413C190.487 86.6549 190.728 86.8484 190.97 86.8968C191.26 86.9452 191.55 86.9452 191.792 86.8L194.547 85.2037C195.03 84.9134 195.223 84.2846 194.933 83.7524L193.87 81.9142Z" fill="#1E1E1E"/>
</g>
<g opacity="0.2">
<path opacity="0.2" d="M184.735 87.187C184.59 86.9451 184.348 86.7516 184.107 86.7033C183.817 86.6065 183.527 86.6549 183.285 86.8L180.53 88.3964C180.047 88.6866 179.853 89.3155 180.143 89.8476L181.207 91.6859C181.352 91.9278 181.593 92.1213 181.835 92.1696C182.125 92.2664 182.415 92.218 182.657 92.0729L185.412 90.4765C185.895 90.1863 186.088 89.5574 185.798 89.0253L184.735 87.187Z" fill="#1E1E1E"/>
</g>
<g opacity="0.2">
<path opacity="0.2" d="M175.552 92.5083C175.407 92.2664 175.165 92.0729 174.923 92.0245C174.633 91.9278 174.343 91.9761 174.102 92.1213L171.347 93.7176C170.863 94.0079 170.67 94.6368 170.96 95.1689L172.023 97.0072C172.168 97.249 172.41 97.4425 172.652 97.4909C172.942 97.5393 173.232 97.5393 173.473 97.3942L176.228 95.7978C176.712 95.5075 176.905 94.8787 176.615 94.3465L175.552 92.5083Z" fill="#1E1E1E"/>
</g>
<g opacity="0.2">
<path opacity="0.2" d="M274.973 104.892C274.925 104.602 274.732 104.409 274.49 104.263L271.735 102.667C271.493 102.522 271.203 102.474 270.913 102.57C270.623 102.619 270.43 102.812 270.285 103.054L269.222 104.892C268.932 105.376 269.125 106.053 269.608 106.343L272.363 107.94C272.847 108.23 273.523 108.037 273.813 107.553L274.877 105.715C274.973 105.473 275.022 105.183 274.973 104.892Z" fill="#1E1E1E"/>
</g>
<g opacity="0.2">
<path opacity="0.2" d="M256.172 93.6693L253.417 92.1213C253.175 91.9761 252.885 91.9278 252.595 92.0245C252.305 92.0729 252.112 92.2664 251.967 92.5083L250.903 94.3465C250.613 94.8303 250.807 95.5075 251.29 95.7978L254.045 97.3942C254.287 97.5393 254.577 97.5877 254.867 97.4909C255.157 97.4425 255.35 97.249 255.495 97.0072L256.558 95.1689C256.848 94.6368 256.655 94.0079 256.172 93.6693Z" fill="#1E1E1E"/>
</g>
<g opacity="0.2">
<path opacity="0.2" d="M265.307 98.9905L262.552 97.3941C262.31 97.249 262.02 97.2007 261.73 97.2974C261.44 97.3458 261.247 97.5393 261.102 97.7812L260.038 99.6194C259.748 100.103 259.942 100.78 260.425 101.071L263.18 102.667C263.422 102.812 263.712 102.861 264.002 102.764C264.292 102.715 264.485 102.522 264.63 102.28L265.693 100.442C265.983 99.9097 265.838 99.2808 265.307 98.9905Z" fill="#1E1E1E"/>
</g>
<g opacity="0.2">
<path opacity="0.2" d="M247.037 88.3964L244.282 86.8C244.04 86.6549 243.75 86.6065 243.46 86.7033C243.17 86.7516 242.977 86.9451 242.832 87.187L241.768 89.0253C241.478 89.509 241.672 90.1863 242.155 90.4765L244.91 92.0729C245.152 92.218 245.442 92.2664 245.732 92.1696C246.022 92.1213 246.215 91.9278 246.36 91.6859L247.423 89.8476C247.713 89.3639 247.52 88.6866 247.037 88.3964Z" fill="#1E1E1E"/>
</g>
<g opacity="0.2">
<path opacity="0.2" d="M228.718 77.8507L225.963 76.2543C225.722 76.1092 225.432 76.0608 225.142 76.1575C224.852 76.2059 224.658 76.3994 224.513 76.6413L223.45 78.4795C223.16 78.9633 223.353 79.6405 223.837 79.9308L226.592 81.5271C226.833 81.6723 227.123 81.7206 227.413 81.6239C227.703 81.5755 227.897 81.382 228.042 81.1401L229.105 79.3019C229.395 78.7698 229.25 78.1409 228.718 77.8507Z" fill="#1E1E1E"/>
</g>
<g opacity="0.2">
<path opacity="0.2" d="M219.583 72.5294L216.828 70.933C216.587 70.7879 216.297 70.7395 216.007 70.8363C215.958 70.8363 215.862 70.8847 215.813 70.933C215.813 70.8363 215.862 70.7879 215.862 70.6912C215.862 70.0623 215.862 69.0464 215.862 67.4017C215.862 67.1114 215.765 66.8695 215.572 66.676C215.378 66.4825 215.088 66.3858 214.847 66.3858H212.72C212.14 66.3858 211.657 66.8695 211.657 67.45C211.657 69.385 211.657 70.4493 211.657 70.9814C211.608 70.933 211.56 70.933 211.512 70.8847C211.222 70.7879 210.932 70.8363 210.69 70.9814L207.935 72.5778C207.452 72.868 207.258 73.4969 207.548 74.029L208.612 75.8673C208.757 76.1092 208.998 76.3027 209.24 76.351C209.53 76.3994 209.82 76.3994 210.062 76.2543L212.817 74.6579C213.3 74.3677 213.493 73.7388 213.203 73.2067L212.188 71.4652L214.702 71.7554C214.847 71.7554 215.04 71.7554 215.185 71.707L214.315 73.2067C214.025 73.6904 214.218 74.3677 214.702 74.6579L217.457 76.2543C217.698 76.3994 217.988 76.4478 218.278 76.351C218.568 76.3027 218.762 76.1092 218.907 75.8673L219.97 74.029C220.26 73.4969 220.067 72.8197 219.583 72.5294Z" fill="#1E1E1E"/>
</g>
<g opacity="0.2">
<path opacity="0.2" d="M237.853 83.1236L235.098 81.5272C234.857 81.3821 234.567 81.3337 234.277 81.4304C233.987 81.4788 233.793 81.6723 233.648 81.9142L232.585 83.7524C232.295 84.2362 232.488 84.9134 232.972 85.2037L235.727 86.8001C235.968 86.9452 236.258 86.9936 236.548 86.8968C236.838 86.8484 237.032 86.6549 237.177 86.4131L238.24 84.5748C238.53 84.0427 238.385 83.4138 237.853 83.1236Z" fill="#1E1E1E"/>
</g>
<g opacity="0.2">
<path opacity="0.2" d="M212.72 8.14228H214.847C215.137 8.14228 215.378 8.04554 215.572 7.85203C215.765 7.65853 215.862 7.36828 215.862 7.12641V4.94953C215.862 4.65928 215.765 4.41741 215.572 4.22391C215.378 4.03041 215.088 3.93365 214.847 3.93365H212.72C212.14 3.93365 211.657 4.4174 211.657 4.9979V7.17478C211.657 7.65853 212.14 8.14228 212.72 8.14228Z" fill="#1E1E1E"/>
</g>
<g opacity="0.2">
<path opacity="0.2" d="M214.847 24.0093H212.72C212.43 24.0093 212.188 24.106 211.995 24.2995C211.802 24.493 211.705 24.7833 211.705 25.0252V28.2179C211.705 28.5082 211.802 28.75 211.995 28.9435C212.188 29.137 212.478 29.2338 212.72 29.2338H214.847C215.427 29.2338 215.91 28.75 215.91 28.1695V24.9768C215.91 24.493 215.427 24.0093 214.847 24.0093Z" fill="#1E1E1E"/>
</g>
<g opacity="0.2">
<path opacity="0.2" d="M214.847 13.4635H212.72C212.14 13.4635 211.657 13.9473 211.657 14.5278V17.7205C211.657 18.301 212.14 18.7848 212.72 18.7848H214.847C215.427 18.7848 215.91 18.301 215.91 17.7205V14.5278C215.91 14.2375 215.813 13.9956 215.62 13.8021C215.378 13.5603 215.137 13.4635 214.847 13.4635Z" fill="#1E1E1E"/>
</g>
<g opacity="0.2">
<path opacity="0.2" d="M214.847 34.6034H212.72C212.43 34.6034 212.188 34.7001 211.995 34.8936C211.802 35.0871 211.705 35.3774 211.705 35.6193V38.812C211.705 39.3925 212.188 39.8763 212.768 39.8763H214.895C215.185 39.8763 215.427 39.7795 215.62 39.586C215.813 39.3925 215.91 39.1023 215.91 38.8604V35.6676C215.91 35.0871 215.427 34.6034 214.847 34.6034Z" fill="#1E1E1E"/>
</g>
<g opacity="0.2">
<path opacity="0.2" d="M214.847 45.1975H212.72C212.14 45.1975 211.657 45.6813 211.657 46.2618V49.4545C211.657 49.7448 211.753 49.9867 211.947 50.1802C212.14 50.3737 212.43 50.4704 212.672 50.4704H214.798C215.378 50.4704 215.862 49.9867 215.862 49.4062V46.2134C215.862 45.9232 215.765 45.6813 215.572 45.4878C215.427 45.2943 215.137 45.1975 214.847 45.1975Z" fill="#1E1E1E"/>
</g>
<g opacity="0.2">
<path opacity="0.2" d="M214.847 55.7917H212.72C212.43 55.7917 212.188 55.8884 211.995 56.0819C211.802 56.2754 211.705 56.5657 211.705 56.8075V60.0003C211.705 60.5808 212.188 61.0645 212.768 61.0645H214.895C215.185 61.0645 215.427 60.9678 215.62 60.7743C215.813 60.5808 215.91 60.2905 215.91 60.0486V56.8075C215.91 56.227 215.427 55.7917 214.847 55.7917Z" fill="#1E1E1E"/>
</g>
</g>
</g>
<path d="M228.767 74.9965C230.362 76.351 232.392 77.125 234.47 77.125C235.533 77.125 236.403 76.2543 236.403 75.19C236.403 74.1258 235.533 73.255 234.47 73.255C232.44 73.255 230.652 71.9973 229.975 70.159C235.243 69.0948 239.11 64.4508 239.11 58.9844C239.11 57.9202 238.24 57.0494 237.177 57.0494C236.113 57.0494 235.243 57.9202 235.243 58.9844C235.243 63.1447 231.86 66.5309 227.703 66.5309C225.673 66.5309 223.74 65.7085 222.338 64.2573C221.952 63.8703 221.468 63.6768 220.937 63.6768C220.405 63.6768 219.922 63.8703 219.583 64.2089C219.197 64.5475 219.003 65.0313 219.003 65.5634C219.003 66.0955 219.197 66.5793 219.535 66.9663C221.275 68.7562 223.498 69.8688 225.915 70.2558C226.302 72.0456 227.317 73.7388 228.767 74.9965Z" fill="#56C8E2"/>
<path d="M237.128 89.4607C236.887 89.4607 236.597 89.4607 236.355 89.5091C236.065 83.4622 231.087 78.673 224.997 78.673C223.933 78.673 223.063 79.5438 223.063 80.6081C223.063 81.6723 223.933 82.5431 224.997 82.5431C229.153 82.5431 232.537 85.9293 232.537 90.0895C232.537 90.2347 232.537 90.3798 232.537 90.5249C230.603 91.3957 229.008 92.7502 227.8 94.4917C226.495 96.3783 225.818 98.6036 225.818 100.926C225.818 101.99 226.688 102.861 227.752 102.861C228.815 102.861 229.685 101.99 229.685 100.926C229.685 96.7653 233.068 93.3791 237.225 93.3791C238.288 93.3791 239.158 92.5083 239.158 91.4441C239.062 90.3314 238.192 89.4607 237.128 89.4607Z" fill="#56C8E2"/>
<path d="M251.242 69.772C251.242 66.8211 250.13 64.0638 248.148 61.9353C248.438 60.9678 248.535 59.9519 248.535 58.936C248.535 53.7599 245.007 49.2127 240.077 47.9065C240.318 47.0842 240.463 46.2618 240.463 45.391C240.463 41.9564 238.433 38.812 235.292 37.4092C230.41 33.5392 225.093 31.2655 220.985 31.2655C218.907 31.2655 216.973 32.1363 215.572 33.6359C214.17 32.1363 212.237 31.2655 210.158 31.2655C206.05 31.2655 200.685 33.5392 195.852 37.4092C192.71 38.812 190.68 41.908 190.68 45.391C190.68 46.2618 190.825 47.0842 191.067 47.9065C186.088 49.2127 182.608 53.7599 182.608 58.936C182.608 59.9519 182.753 60.9678 182.995 61.9353C180.965 64.0638 179.902 66.8211 179.902 69.772C179.902 71.9489 180.53 74.029 181.642 75.8673C180.482 77.7055 179.902 79.7856 179.902 81.9625C179.902 85.9293 181.98 89.6058 185.363 91.6859C185.315 92.0729 185.315 92.4115 185.315 92.7985C185.315 95.5075 186.185 98.1198 187.78 100.345C189.327 102.474 191.453 104.021 193.967 104.892C195.078 106.73 196.625 108.23 198.51 109.294C200.443 110.407 202.618 110.988 204.842 110.988C207.258 110.988 209.578 110.31 211.657 109.004C213.3 107.988 214.653 106.585 215.668 104.941C216.683 106.585 218.037 107.94 219.68 109.004C221.71 110.31 224.078 110.988 226.495 110.988C228.718 110.988 230.942 110.407 232.827 109.294C234.663 108.23 236.21 106.73 237.322 104.892C239.787 104.07 241.913 102.474 243.508 100.345C245.103 98.1198 245.973 95.5559 245.973 92.7985C245.973 92.4599 245.973 92.0729 245.925 91.6859C249.308 89.6058 251.387 85.9293 251.387 81.9625C251.387 79.7856 250.758 77.7055 249.647 75.8673C250.613 74.029 251.242 71.9489 251.242 69.772ZM241.768 90.9603C241.865 91.5408 241.962 92.1696 241.962 92.7501C241.962 96.7653 239.255 100.297 235.388 101.313C234.857 101.458 234.422 101.796 234.18 102.28C232.633 105.231 229.637 107.021 226.302 107.021C221.42 107.021 217.408 103.054 217.408 98.1198C217.408 94.1046 220.115 90.5733 223.982 89.5574C224.465 89.4123 224.9 89.122 225.142 88.6383C225.383 88.2029 225.48 87.6708 225.335 87.187C225.093 86.3646 224.368 85.7358 223.45 85.7358C223.257 85.7358 223.112 85.7358 222.967 85.7841C220.84 86.3646 218.955 87.4289 217.408 88.9285V60.1938C217.408 58.2588 218.955 56.7108 220.888 56.7108C221.952 56.7108 222.822 55.84 222.822 54.7758C222.822 53.7115 221.952 52.8408 220.888 52.8408C219.68 52.8408 218.472 53.131 217.408 53.7115V38.5702C217.408 36.6352 218.955 35.0872 220.888 35.0872C222.967 35.0872 225.528 35.8612 228.235 37.3608C226.35 38.1832 224.755 39.6828 223.885 41.521C223.643 42.0048 223.643 42.5369 223.788 43.0207C223.982 43.5044 224.32 43.8914 224.755 44.1333C224.997 44.2784 225.287 44.3268 225.577 44.3268C226.302 44.3268 226.978 43.8914 227.317 43.2142C228.138 41.521 229.782 40.5052 231.667 40.5052C232.247 40.5052 232.827 40.6019 233.358 40.7954C233.407 40.8438 233.503 40.8438 233.6 40.8922C235.34 41.6662 236.5 43.4077 236.5 45.2943C236.5 46.0683 236.307 46.7939 235.968 47.4712C230.168 48.0517 225.673 52.9375 225.673 58.8393C225.673 59.9035 226.543 60.7743 227.607 60.7743C228.67 60.7743 229.54 59.9035 229.54 58.8393C229.54 54.679 232.923 51.2928 237.08 51.2928C241.237 51.2928 244.62 54.679 244.62 58.8393C244.62 59.8068 244.427 60.7743 244.088 61.645C243.75 62.419 243.992 63.3382 244.62 63.8703C246.36 65.3215 247.327 67.4016 247.327 69.6269C247.327 73.7871 243.943 77.1734 239.787 77.1734C238.723 77.1734 237.853 78.0441 237.853 79.1084C237.853 80.1726 238.723 81.0434 239.787 81.0434C242.252 81.0434 244.668 80.221 246.65 78.7214C247.085 79.6889 247.327 80.7048 247.327 81.8174C247.327 84.7683 245.587 87.4773 242.832 88.6866C242.058 89.1704 241.623 90.0895 241.768 90.9603ZM188.167 88.8318C185.46 87.6224 183.672 84.9134 183.672 81.9625C183.672 80.8983 183.913 79.834 184.348 78.8665C186.33 80.3661 188.747 81.1885 191.212 81.1885C192.275 81.1885 193.145 80.3178 193.145 79.2535C193.145 78.1893 192.275 77.3185 191.212 77.3185C187.055 77.3185 183.672 73.9323 183.672 69.772C183.672 67.5468 184.638 65.4183 186.378 64.0154C187.055 63.4833 187.248 62.5641 186.958 61.7901C186.572 60.871 186.427 59.9035 186.427 58.9844C186.427 54.8242 189.81 51.4379 193.967 51.4379C198.123 51.4379 201.507 54.8242 201.507 58.9844C201.507 60.0486 202.377 60.9194 203.44 60.9194C204.503 60.9194 205.373 60.0486 205.373 58.9844C205.373 53.131 200.878 48.1968 195.078 47.6163C194.74 46.939 194.547 46.2134 194.547 45.4394C194.547 43.5044 195.658 41.8113 197.447 41.0373C197.543 40.9889 197.592 40.9889 197.688 40.9405C198.22 40.747 198.8 40.6503 199.38 40.6503C201.217 40.6503 202.908 41.7145 203.73 43.3593C204.068 44.0365 204.745 44.4235 205.47 44.4235C205.76 44.4235 206.05 44.3752 206.292 44.23C206.775 43.9882 207.113 43.6012 207.258 43.1174C207.452 42.6337 207.403 42.1015 207.162 41.6178C206.243 39.7795 204.697 38.2799 202.812 37.4575C205.518 36.0063 208.08 35.1839 210.158 35.1839C212.092 35.1839 213.638 36.7319 213.638 38.6669V48.4387C212.575 47.8582 211.367 47.5679 210.158 47.5679C209.095 47.5679 208.225 48.4387 208.225 49.5029C208.225 50.5672 209.095 51.4379 210.158 51.4379C212.092 51.4379 213.638 52.9859 213.638 54.9209V96.8136C213.638 96.9588 213.638 97.0555 213.687 97.2006C213.638 97.5876 213.638 97.8779 213.638 98.2165C213.638 103.102 209.675 107.118 204.745 107.118C201.458 107.118 198.413 105.279 196.915 102.377C196.673 101.893 196.238 101.554 195.707 101.409C191.84 100.345 189.133 96.862 189.133 92.8469C189.133 92.2664 189.182 91.6375 189.327 91.057C189.423 90.0895 188.988 89.2188 188.167 88.8318Z" fill="#39C4E5"/>
<path d="M199.573 74.7547C201.023 73.4969 201.99 71.8522 202.377 69.9655C204.793 69.5785 207.017 68.4659 208.757 66.676C209.482 65.902 209.482 64.6926 208.708 63.9186C208.322 63.58 207.887 63.3865 207.355 63.3865C206.823 63.3865 206.34 63.58 205.953 63.967C204.503 65.4183 202.618 66.2406 200.588 66.2406C196.432 66.2406 193.048 62.8544 193.048 58.6941C193.048 57.6299 192.178 56.7591 191.115 56.7591C190.052 56.7591 189.182 57.6299 189.182 58.6941C189.182 64.1605 193.048 68.8045 198.317 69.8688C197.592 71.707 195.803 72.9648 193.822 72.9648C192.758 72.9648 191.888 73.8355 191.888 74.8998C191.888 75.964 192.758 76.8348 193.822 76.8348C195.997 76.8832 198.027 76.1575 199.573 74.7547Z" fill="#39C4E5"/>
<path d="M207.887 77.0766C201.797 77.0766 196.77 81.9141 196.48 87.9126C196.238 87.9126 195.948 87.8643 195.707 87.8643C194.643 87.8643 193.773 88.735 193.773 89.7993C193.773 90.8635 194.643 91.7343 195.707 91.7343C199.863 91.7343 203.247 95.1205 203.247 99.2808C203.247 100.345 204.117 101.216 205.18 101.216C206.243 101.216 207.113 100.345 207.113 99.2808C207.113 96.9588 206.437 94.7335 205.132 92.8469C203.923 91.1054 202.28 89.7509 200.395 88.8801C200.395 88.735 200.395 88.5899 200.395 88.4448C200.395 84.2845 203.778 80.8983 207.935 80.8983C208.998 80.8983 209.868 80.0275 209.868 78.9633C209.82 77.9474 208.95 77.0766 207.887 77.0766Z" fill="#39C4E5"/>
<path d="M213.638 142.238C212.188 142.238 210.738 141.851 209.433 141.125L155.203 109.778C152.593 108.279 150.998 105.473 150.998 102.474V39.7795C150.998 36.7803 152.593 33.9745 155.203 32.4749L209.385 1.17626C211.995 -0.323362 215.233 -0.323362 217.843 1.17626L272.073 32.5233C274.683 34.0229 276.278 36.8286 276.278 39.8279V102.474C276.278 105.473 274.635 108.279 272.073 109.778L217.843 141.125C216.538 141.851 215.088 142.238 213.638 142.238ZM213.638 4.27226C212.913 4.27226 212.188 4.46577 211.512 4.85277L157.282 36.1998C155.977 36.9738 155.155 38.3766 155.155 39.8763V102.522C155.155 104.022 155.977 105.424 157.282 106.198L211.512 137.545C212.817 138.319 214.412 138.319 215.717 137.545L269.947 106.198C271.252 105.424 272.073 104.022 272.073 102.522V39.7795C272.073 38.2799 271.252 36.877 269.947 36.103L215.717 4.80439C215.088 4.46576 214.363 4.27226 213.638 4.27226Z" fill="#1E1E1E"/>
<path d="M95.85 199.852C95.85 198.159 94.4483 196.756 92.7567 196.756C91.065 196.756 89.6634 198.159 89.6634 199.852V212.236C89.6634 213.93 91.065 215.332 92.7567 215.332C94.4483 215.332 95.85 213.93 95.85 212.236V199.852Z" fill="#1E1E1E"/>
<path d="M128.861 176.004C128.861 174.697 128.04 173.536 126.783 173.101C125.526 172.666 124.173 173.053 123.351 174.069L109.286 191.677L95.2213 174.069C94.3996 173.053 93.0463 172.666 91.7896 173.101C90.5329 173.536 89.7112 174.697 89.7112 176.004V188.388C89.7112 190.081 91.1129 191.484 92.8046 191.484C94.4963 191.484 95.8979 190.081 95.8979 188.388V184.808L106.87 198.546C107.45 199.272 108.368 199.707 109.286 199.707C110.253 199.707 111.123 199.272 111.703 198.546L122.675 184.808V188.388C122.675 190.081 124.076 191.484 125.768 191.484C127.46 191.484 128.861 190.081 128.861 188.388V176.004Z" fill="#39C4E5"/>
<path d="M125.768 196.756C124.077 196.756 122.675 198.159 122.675 199.852V230.667C122.675 232.36 124.077 233.763 125.768 233.763C127.46 233.763 128.862 232.36 128.862 230.667V199.852C128.862 198.159 127.46 196.756 125.768 196.756Z" fill="#1E1E1E"/>
<path d="M242.445 227.813C244.137 227.813 245.538 226.41 245.538 224.717V204.061C245.538 202.368 244.137 200.965 242.445 200.965C240.753 200.965 239.352 202.368 239.352 204.061V224.717C239.352 226.41 240.753 227.813 242.445 227.813Z" fill="#1E1E1E"/>
<path d="M267.192 157.96C265.5 157.96 264.098 159.363 264.098 161.056V189.403C264.098 191.096 265.5 192.499 267.192 192.499C268.883 192.499 270.285 191.096 270.285 189.403V161.056C270.285 159.363 268.883 157.96 267.192 157.96Z" fill="#1E1E1E"/>
<path d="M267.192 197.772C265.5 197.772 264.098 199.175 264.098 200.868V203.964L244.91 178.374C244.088 177.31 242.735 176.874 241.43 177.261C240.173 177.697 239.303 178.858 239.303 180.212V192.596C239.303 194.289 240.705 195.692 242.397 195.692C244.088 195.692 245.49 194.289 245.49 192.596V189.5L264.678 215.091C265.5 216.155 266.853 216.59 268.11 216.203C269.367 215.768 270.237 214.607 270.237 213.252V200.868C270.285 199.175 268.883 197.772 267.192 197.772Z" fill="#39C4E5"/>
<path d="M19.0967 172.908C14.5533 172.908 10.3483 174.456 7.01334 177.068C3.67834 179.68 1.21334 183.357 0.150005 187.614C-0.284995 189.258 0.730008 190.951 2.37334 191.387C4.01667 191.822 5.70833 190.806 6.14333 189.161C6.86833 186.259 8.56001 183.744 10.8317 181.954C13.1033 180.164 16.0033 179.1 19.0967 179.1C22.8183 179.1 26.1533 180.599 28.57 183.018C29.7783 184.227 31.7117 184.227 32.92 183.018C34.1283 181.809 34.1283 179.825 32.92 178.616C29.3917 175.133 24.4617 172.908 19.0967 172.908Z" fill="#39C4E5"/>
<path d="M28.57 205.222C26.1533 207.641 22.8183 209.14 19.0967 209.14C15.955 209.14 13.1033 208.076 10.8317 206.286C8.56001 204.496 6.86834 201.981 6.14334 199.078C5.70834 197.434 4.01668 196.418 2.37334 196.853C0.730008 197.289 -0.284995 198.982 0.150005 200.626C1.21334 204.883 3.67834 208.511 7.01334 211.172C10.3483 213.784 14.5533 215.381 19.0967 215.381C24.51 215.381 29.44 213.156 32.9683 209.624C34.1767 208.415 34.1767 206.48 32.9683 205.222C31.7117 204.013 29.7783 204.013 28.57 205.222Z" fill="#1E1E1E"/>
<path d="M77 201.062C75.3567 200.626 73.665 201.642 73.23 203.287C72.505 206.19 70.8133 208.705 68.5417 210.495C66.27 212.285 63.4183 213.349 60.2767 213.349C57.135 213.349 54.2833 212.285 52.0117 210.495C49.74 208.705 48.0483 206.19 47.3233 203.287C46.8883 201.642 45.1967 200.626 43.5533 201.062C41.91 201.497 40.895 203.19 41.33 204.835C42.4417 209.092 44.8583 212.72 48.1933 215.381C51.5283 217.993 55.7333 219.589 60.2767 219.589C64.82 219.589 69.025 218.041 72.36 215.381C75.695 212.769 78.16 209.092 79.2233 204.835C79.6583 203.19 78.6917 201.497 77 201.062Z" fill="#1E1E1E"/>
<path d="M43.505 195.644C45.1483 196.079 46.84 195.063 47.275 193.419C48 190.516 49.6917 188.001 51.9633 186.211C54.235 184.421 57.0867 183.357 60.2283 183.357C63.37 183.357 66.2216 184.421 68.4933 186.211C70.765 188.001 72.4567 190.516 73.1817 193.419C73.6167 195.063 75.3083 196.079 76.9516 195.644C78.595 195.208 79.61 193.515 79.175 191.871C78.0633 187.614 75.6466 183.985 72.3116 181.325C68.9766 178.713 64.7716 177.165 60.2283 177.165C55.685 177.165 51.4317 178.713 48.145 181.325C44.81 183.937 42.345 187.614 41.2817 191.871C40.8467 193.515 41.8617 195.208 43.505 195.644Z" fill="#39C4E5"/>
<path d="M146.842 203.045C146.842 201.352 145.44 199.949 143.748 199.949C142.057 199.949 140.655 201.352 140.655 203.045V215.429C140.655 217.122 142.057 218.525 143.748 218.525C145.44 218.525 146.842 217.122 146.842 215.429V203.045Z" fill="#1E1E1E"/>
<path d="M179.805 179.196C179.805 177.89 178.983 176.729 177.727 176.294C176.47 175.858 175.117 176.245 174.295 177.261L160.23 194.87L146.165 177.261C145.343 176.245 143.99 175.858 142.733 176.294C141.477 176.729 140.655 177.89 140.655 179.196V191.58C140.655 193.273 142.057 194.676 143.748 194.676C145.44 194.676 146.842 193.273 146.842 191.58V188.001L157.813 201.739C158.393 202.465 159.312 202.9 160.23 202.9C161.197 202.9 162.067 202.465 162.647 201.739L173.618 188.001V191.58C173.618 193.273 175.02 194.676 176.712 194.676C178.403 194.676 179.805 193.273 179.805 191.58V179.196Z" fill="#39C4E5"/>
<path d="M176.712 199.949C175.02 199.949 173.618 201.352 173.618 203.045V215.429C173.618 217.122 175.02 218.525 176.712 218.525C178.403 218.525 179.805 217.122 179.805 215.429V203.045C179.805 201.352 178.452 199.949 176.712 199.949Z" fill="#1E1E1E"/>
<path d="M226.35 197.869C224.707 197.434 223.015 198.45 222.58 200.094C221.855 202.997 220.163 205.512 217.892 207.302C215.62 209.092 212.768 210.156 209.627 210.156C206.485 210.156 203.633 209.092 201.362 207.302C199.09 205.512 197.398 202.997 196.673 200.094C196.238 198.45 194.547 197.434 192.903 197.869C191.26 198.304 190.245 199.998 190.68 201.642C191.792 205.899 194.208 209.527 197.543 212.188C200.878 214.8 205.083 216.397 209.627 216.397C214.17 216.397 218.375 214.849 221.71 212.188C225.045 209.576 227.51 205.899 228.573 201.642C229.008 199.998 227.993 198.304 226.35 197.869Z" fill="#1E1E1E"/>
<path d="M192.855 192.403C194.498 192.838 196.19 191.822 196.625 190.177C197.35 187.275 199.042 184.759 201.313 182.969C203.585 181.18 206.437 180.115 209.578 180.115C212.72 180.115 215.572 181.18 217.843 182.969C220.115 184.759 221.807 187.275 222.532 190.177C222.967 191.822 224.658 192.838 226.302 192.403C227.945 191.967 228.96 190.274 228.525 188.629C227.413 184.372 224.997 180.744 221.662 178.084C218.327 175.471 214.122 173.923 209.578 173.923C205.035 173.923 200.782 175.471 197.495 178.084C194.16 180.696 191.695 184.372 190.632 188.629C190.197 190.322 191.212 192.016 192.855 192.403Z" fill="#39C4E5"/>
<path d="M289.908 179.1L302.572 177.019L297.303 194.87C301.605 187.565 305.472 182.437 308.952 179.535C310.933 177.89 312.528 177.019 313.785 177.019C314.607 177.019 315.235 177.261 315.718 177.745C316.202 178.229 316.395 178.906 316.395 179.825C316.395 181.422 315.96 182.97 315.138 184.469C314.558 185.582 313.688 186.114 312.625 186.114C312.045 186.114 311.562 185.92 311.175 185.582C310.788 185.195 310.498 184.663 310.402 183.889C310.353 183.405 310.257 183.115 310.063 182.97C309.87 182.776 309.628 182.679 309.387 182.679C308.952 182.679 308.565 182.776 308.227 182.97C307.598 183.308 306.632 184.276 305.327 185.824C303.297 188.242 301.073 191.338 298.705 195.16C297.69 196.756 296.772 198.595 296.047 200.626C295.032 203.432 294.452 205.077 294.307 205.657L293.147 210.301H287.54L294.355 187.468C295.128 184.808 295.515 182.921 295.515 181.809C295.515 181.373 295.322 180.986 294.983 180.696C294.5 180.309 293.823 180.115 293.05 180.115C292.518 180.115 291.6 180.212 290.198 180.454L289.908 179.1Z" fill="#1E1E1E"/>
<path d="M332.49 177.019L325.24 202.755C324.757 204.496 324.515 205.512 324.515 205.899C324.515 206.286 324.612 206.625 324.853 206.867C325.095 207.109 325.337 207.254 325.675 207.254C326.062 207.254 326.497 207.06 326.98 206.673C328.382 205.561 329.783 204.013 331.185 201.981L332.49 202.803C330.847 205.367 328.865 207.496 326.593 209.237C324.95 210.543 323.355 211.172 321.808 211.172C320.793 211.172 319.972 210.882 319.343 210.253C318.715 209.673 318.377 208.899 318.377 207.979C318.377 207.06 318.667 205.561 319.295 203.481L324.08 187.033C324.853 184.324 325.24 182.631 325.24 181.954C325.24 181.422 325.047 180.986 324.66 180.648C324.273 180.309 323.742 180.115 323.113 180.115C322.582 180.115 321.47 180.261 319.778 180.502V179.051L332.49 177.019ZM332.055 162.459C333.07 162.459 333.94 162.797 334.665 163.523C335.39 164.248 335.728 165.119 335.728 166.135C335.728 167.151 335.39 168.022 334.665 168.747C333.94 169.473 333.07 169.812 332.055 169.812C331.04 169.812 330.17 169.473 329.445 168.747C328.72 168.022 328.382 167.151 328.382 166.135C328.382 165.119 328.72 164.248 329.445 163.523C330.122 162.797 330.992 162.459 332.055 162.459Z" fill="#1E1E1E"/>
<path d="M375.265 179.293L374.202 183.115H368.063C368.547 184.421 368.74 185.679 368.74 186.84C368.74 190.081 367.387 192.935 364.632 195.45C361.877 197.966 358.058 199.369 353.273 199.659C350.663 200.433 348.73 201.352 347.425 202.465C346.942 202.852 346.7 203.239 346.7 203.674C346.7 204.158 346.942 204.593 347.377 205.029C347.812 205.416 348.923 205.851 350.712 206.238L357.817 207.883C361.78 208.802 364.342 209.914 365.647 211.172C366.903 212.478 367.532 213.978 367.532 215.671C367.532 217.703 366.807 219.493 365.308 221.186C363.81 222.831 361.683 224.137 358.832 225.104C355.98 226.023 352.838 226.507 349.358 226.507C346.313 226.507 343.558 226.168 341.045 225.443C338.532 224.717 336.743 223.75 335.68 222.54C334.617 221.331 334.085 220.073 334.085 218.767C334.085 217.703 334.423 216.639 335.148 215.478C335.825 214.317 336.743 213.397 337.758 212.672C338.435 212.188 340.272 211.124 343.365 209.382C342.253 208.512 341.673 207.544 341.673 206.48C341.673 205.512 342.157 204.448 343.172 203.335C344.138 202.223 346.265 201.013 349.455 199.707C346.748 199.175 344.622 198.063 343.075 196.321C341.48 194.58 340.707 192.645 340.707 190.516C340.707 187.033 342.253 183.937 345.298 181.18C348.343 178.422 352.403 177.068 357.478 177.068C359.315 177.068 360.813 177.261 361.973 177.6C363.133 177.987 364.293 178.567 365.405 179.341H375.265V179.293ZM344.96 210.253C342.978 211.172 341.48 212.333 340.465 213.736C339.45 215.139 338.918 216.542 338.918 217.945C338.918 219.541 339.643 220.896 341.142 221.96C343.268 223.459 346.313 224.233 350.373 224.233C353.853 224.233 356.85 223.653 359.363 222.444C361.828 221.234 363.085 219.735 363.085 217.848C363.085 216.88 362.602 216.01 361.732 215.139C360.813 214.268 359.025 213.591 356.415 213.059C354.917 212.72 351.098 211.801 344.96 210.253ZM362.553 185.05C362.553 183.115 362.022 181.567 360.91 180.406C359.798 179.293 358.397 178.713 356.657 178.713C353.902 178.713 351.63 180.115 349.793 182.873C348.005 185.63 347.087 188.533 347.087 191.58C347.087 193.467 347.667 195.015 348.827 196.224C349.987 197.434 351.388 198.014 353.032 198.014C354.337 198.014 355.593 197.676 356.802 196.95C358.01 196.224 359.025 195.257 359.847 193.999C360.668 192.741 361.345 191.145 361.828 189.21C362.312 187.323 362.553 185.92 362.553 185.05Z" fill="#1E1E1E"/>
<path d="M395.758 158.056L385.415 193.709C389.862 186.985 393.342 182.534 395.855 180.357C398.368 178.132 400.737 177.068 403.008 177.068C404.168 177.068 405.183 177.455 405.957 178.277C406.73 179.1 407.117 180.164 407.117 181.518C407.117 183.115 406.778 185.098 406.102 187.372L401.607 202.755C401.027 204.593 400.785 205.657 400.785 205.851C400.785 206.19 400.882 206.48 401.075 206.673C401.268 206.915 401.51 207.012 401.8 207.012C402.138 207.012 402.477 206.867 402.912 206.528C404.313 205.464 405.667 203.964 407.068 202.029L408.228 202.707C407.407 204.013 406.247 205.416 404.748 206.964C403.25 208.512 401.993 209.576 400.93 210.205C399.867 210.785 398.9 211.124 398.078 211.124C397.16 211.124 396.435 210.834 395.855 210.253C395.275 209.673 394.985 208.947 394.985 208.028C394.985 206.964 395.42 204.932 396.29 201.981L400.495 187.275C401.027 185.437 401.317 183.985 401.317 182.921C401.317 182.437 401.172 182.05 400.882 181.76C400.592 181.47 400.157 181.325 399.673 181.325C398.948 181.325 398.175 181.615 397.257 182.147C395.613 183.163 393.68 185.098 391.505 187.855C390.925 188.629 388.943 191.677 385.608 197.047C384.593 198.74 383.723 200.626 383.095 202.658L380.727 210.205H375.217L387.3 168.167L388.605 163.62C388.605 162.991 388.363 162.41 387.832 161.926C387.3 161.443 386.672 161.201 385.898 161.201C385.463 161.201 384.787 161.298 383.868 161.443L383.095 161.539V160.088L395.758 158.056Z" fill="#1E1E1E"/>
<path d="M430.8 167.925L427.948 177.938H433.7L433.072 180.26H427.368L421.037 201.933C420.36 204.255 420.022 205.754 420.022 206.431C420.022 206.867 420.118 207.157 420.312 207.399C420.505 207.641 420.747 207.738 420.988 207.738C421.617 207.738 422.39 207.302 423.405 206.431C423.985 205.948 425.29 204.448 427.32 201.933L428.528 202.852C426.257 206.141 424.13 208.463 422.148 209.818C420.795 210.737 419.393 211.221 417.992 211.221C416.928 211.221 416.01 210.882 415.333 210.205C414.657 209.527 414.318 208.657 414.318 207.592C414.318 206.286 414.705 204.255 415.478 201.546L421.617 180.26H416.058L416.445 178.809C419.152 178.084 421.375 176.971 423.163 175.52C424.952 174.068 426.933 171.553 429.157 167.925H430.8Z" fill="#1E1E1E"/>
</svg>
